<?xml version="1.0" encoding="utf-8"?>
<!-- Generator: Adobe Illustrator 19.1.0, SVG Export Plug-In . SVG Version: 6.00 Build 0)  -->
<!DOCTYPE svg PUBLIC "-//W3C//DTD SVG 1.1//EN" "http://www.w3.org/Graphics/SVG/1.1/DTD/svg11.dtd">
<svg version="1.1" id="Livello_1" xmlns="http://www.w3.org/2000/svg" xmlns:xlink="http://www.w3.org/1999/xlink" x="0px" y="0px"
	 viewBox="-1284 1341.3 153 40" style="enable-background:new -1284 1341.3 153 40;" xml:space="preserve">
<style type="text/css">
	.st0{fill:none;}
	.st1{fill:url(#SVGID_1_);}
	.st2{fill:url(#SVGID_2_);}
	.st3{fill:url(#SVGID_3_);}
	.st4{fill:url(#SVGID_4_);}
	.st5{fill:url(#SVGID_5_);}
	.st6{fill:url(#SVGID_6_);}
	.st7{fill:url(#SVGID_7_);}
	.st8{fill:url(#SVGID_8_);}
	.st9{fill:url(#SVGID_9_);}
	.st10{fill:url(#SVGID_10_);}
	.st11{fill:url(#SVGID_11_);}
	.st12{fill:url(#SVGID_12_);}
	.st13{fill:url(#SVGID_13_);}
	.st14{fill:url(#SVGID_14_);}
	.st15{fill:url(#SVGID_15_);}
</style>
<path class="st0" d="M-1209.3,1361c-0.1,0.1-0.2,0.2-0.2,0.3c-0.2,0.3-0.1,0.6-0.1,0.6v5.4v0.8h1.2h1.7c0,0,0.7-0.1,1-0.4
	c0.4-0.4,0.4-0.9,0.4-0.9s0-4.1,0-5.6c0-0.2,0-0.4,0-0.5c-0.6,0-2.9,0-2.9,0S-1208.9,1360.8-1209.3,1361z"/>
<path class="st0" d="M-1175.3,1364.9v0.7v1c0,0.3,0.1,0.7,0.2,1c0.1,0.3,0.3,0.5,0.6,0.7s0.7,0.3,1.3,0.3c0.4,0,0.8-0.1,1.1-0.2
	c0.3-0.1,0.5-0.3,0.6-0.5c0.1-0.2,0.2-0.5,0.3-0.8l0.1-0.8v-1.2C-1172.6,1365-1174,1364.9-1175.3,1364.9z"/>
<path class="st0" d="M-1261.8,1368.1h1.2h1.6c0,0,0.7-0.1,1-0.4c0.4-0.4,0.4-0.9,0.4-0.9s0-2.6,0-4.4c-1.4,0.6-2.8,1.1-4.2,1.6v3.3
	V1368.1z"/>
<linearGradient id="SVGID_1_" gradientUnits="userSpaceOnUse" x1="-1145.8" y1="1346.0894" x2="-1145.8" y2="1375.2819" gradientTransform="matrix(1 0 0 -1 0 2723.78)">
	<stop  offset="0" style="stop-color:#1B75BB"/>
	<stop  offset="1" style="stop-color:#26A9E0"/>
</linearGradient>
<path class="st1" d="M-1139.3,1358.4l0.4-2.4h-1.9c-1.1,0.7-2.4,1.3-3.7,2c-3.1,1.6-6.2,2.9-9.2,3.9c0.1,1.1,1.1,2,2.3,2h5.9
	l-0.7,3.6l3.6-3.6h4.7v-7L-1139.3,1358.4z"/>
<linearGradient id="SVGID_2_" gradientUnits="userSpaceOnUse" x1="-1150.25" y1="1350.6616" x2="-1150.25" y2="1375.1527" gradientTransform="matrix(1 0 0 -1 0 2723.78)">
	<stop  offset="0" style="stop-color:#1B75BB"/>
	<stop  offset="1" style="stop-color:#26A9E0"/>
</linearGradient>
<path class="st2" d="M-1142.5,1364l-3.6,3.6l0.7-3.6h-5.9c-1.2,0-2.1-0.9-2.3-2c0-0.1,0-0.2,0-0.3v-5.2v-8h-0.8h-5.3
	c-1.6,0-3,1.3-3,3v6.5v6.2v5.9c0,1.6,1.3,3,3,3h7.6l-0.9,4.7l4.7-4.7h7.5c1.6,0,3-1.3,3-3v-5.4v-0.8L-1142.5,1364L-1142.5,1364z"/>
<linearGradient id="SVGID_3_" gradientUnits="userSpaceOnUse" x1="-1147.25" y1="1346.0894" x2="-1147.25" y2="1375.282" gradientTransform="matrix(1 0 0 -1 0 2723.78)">
	<stop  offset="0" style="stop-color:#1B75BB"/>
	<stop  offset="1" style="stop-color:#26A9E0"/>
</linearGradient>
<path class="st3" d="M-1153.7,1361.7c0,0.1,0,0.2,0,0.3c3-1,6.1-2.3,9.2-3.9c1.3-0.7,2.6-1.4,3.7-2h-2c-0.8,0-1.5-0.7-1.5-1.5v-0.1
	c-3,0.7-6.1,1.4-9.4,2V1361.7z"/>
<linearGradient id="SVGID_4_" gradientUnits="userSpaceOnUse" x1="-1148.9" y1="1346.0897" x2="-1148.9" y2="1375.2815" gradientTransform="matrix(1 0 0 -1 0 2723.78)">
	<stop  offset="0" style="stop-color:#1B75BB"/>
	<stop  offset="1" style="stop-color:#26A9E0"/>
</linearGradient>
<path class="st4" d="M-1144.2,1354.5v-6h-9.4v8C-1150.3,1355.9-1147.2,1355.2-1144.2,1354.5z"/>
<linearGradient id="SVGID_5_" gradientUnits="userSpaceOnUse" x1="-1144.1" y1="1411.0692" x2="-1144.1" y2="1269.5415" gradientTransform="matrix(1 0 0 -1 0 2723.78)">
	<stop  offset="0" style="stop-color:#8AC9EE"/>
	<stop  offset="1" style="stop-color:#77B9E5"/>
</linearGradient>
<path class="st5" d="M-1136.9,1356.1l-0.9,0.9l-1.4,1.4l0.4-2.4h-1.9h-2c-0.8,0-1.5-0.7-1.5-1.5v-0.1v-5.9v-3.4v-0.1h-0.8h-6.4
	c-1.3,0-2.3,1-2.3,2.3v1.2v8v5.2c0,0.1,0,0.2,0,0.3c0.1,1.1,1.1,2,2.3,2h5.9l-0.7,3.6l3.6-3.6h4.7h1.1c1.3,0,2.3-1,2.3-2.3v-4.9
	v-0.8h-2.4V1356.1z"/>
<linearGradient id="SVGID_6_" gradientUnits="userSpaceOnUse" x1="-1139.3" y1="1378.0543" x2="-1139.3" y2="1360.424" gradientTransform="matrix(1 0 0 -1 0 2723.78)">
	<stop  offset="0" style="stop-color:#8AC9EE"/>
	<stop  offset="1" style="stop-color:#77B9E5"/>
</linearGradient>
<path class="st6" d="M-1144.2,1348.5h6.4v4.2c1.2-0.4,2.3-0.7,3.4-1.1v-6.6h-9.8v0.1V1348.5L-1144.2,1348.5z"/>
<linearGradient id="SVGID_7_" gradientUnits="userSpaceOnUse" x1="-1141" y1="1346.0887" x2="-1141" y2="1375.2815" gradientTransform="matrix(1 0 0 -1 0 2723.78)">
	<stop  offset="0" style="stop-color:#1B75BB"/>
	<stop  offset="1" style="stop-color:#26A9E0"/>
</linearGradient>
<path class="st7" d="M-1144.2,1348.5v5.9c2.2-0.6,4.4-1.1,6.4-1.8v-4.1H-1144.2z"/>
<linearGradient id="SVGID_8_" gradientUnits="userSpaceOnUse" x1="-1141" y1="1378.054" x2="-1141" y2="1360.4229" gradientTransform="matrix(1 0 0 -1 0 2723.78)">
	<stop  offset="0" style="stop-color:#8AC9EE"/>
	<stop  offset="1" style="stop-color:#77B9E5"/>
</linearGradient>
<path class="st8" d="M-1144.2,1348.5v5.9c2.2-0.6,4.4-1.1,6.4-1.8v-4.1H-1144.2z"/>
<linearGradient id="SVGID_9_" gradientUnits="userSpaceOnUse" x1="-1137.9" y1="1422.0703" x2="-1137.9" y2="1345.9757" gradientTransform="matrix(1 0 0 -1 0 2723.78)">
	<stop  offset="0" style="stop-color:#C6DEF0"/>
	<stop  offset="1" style="stop-color:#9DD1EE"/>
</linearGradient>
<path class="st9" d="M-1133.1,1343.6h-9.6c-0.8,0-1.5,0.6-1.5,1.4v0.1v3.4v5.9v0.1c0,0.8,0.7,1.5,1.5,1.5h2h1.9l-0.4,2.4l1.4-1.4
	l0.9-0.9h2.5h1.3c0.8,0,1.5-0.7,1.5-1.5v-4v-1.1v-4.4C-1131.6,1344.3-1132.2,1343.6-1133.1,1343.6z"/>
<linearGradient id="SVGID_10_" gradientUnits="userSpaceOnUse" x1="-1182" y1="1351.2355" x2="-1182" y2="1375.5363" gradientTransform="matrix(1 0 0 -1 0 2723.78)">
	<stop  offset="0" style="stop-color:#1B75BB"/>
	<stop  offset="1" style="stop-color:#26A9E0"/>
</linearGradient>
<path class="st10" d="M-1197.3,1359.6v1.5v11.6h4.6c0,0,0-11.3,0-11.3v-0.6v-5.3v-0.9c0-0.3,0.1-0.7,0.2-0.9
	c0.1-0.3,0.3-0.5,0.6-0.7c0.3-0.2,0.7-0.3,1.2-0.3s0.8,0.1,1.1,0.2c0.3,0.1,0.5,0.3,0.6,0.5s0.2,0.5,0.3,0.8l0.1,0.8v5.6v2.1v10h4.6
	v-8.9v-3.5v-5.2l0.1-0.8c0.1-0.3,0.2-0.5,0.3-0.8c0.1-0.2,0.3-0.4,0.6-0.6c0.3-0.2,0.6-0.2,1-0.2c0.5,0,0.9,0.1,1.2,0.3
	c0.3,0.2,0.5,0.4,0.6,0.7c0.1,0.3,0.2,0.6,0.2,0.9v1v4.4v1.5v2.7v0.2v2.2c0,1.1,0.2,2.1,0.6,2.9c0.4,0.8,0.9,1.5,1.6,2
	c0.6,0.5,1.4,0.9,2.2,1.2c0.8,0.2,1.6,0.4,2.4,0.4c0.6,0,1.3-0.1,2-0.3c0,0.7,0,2,0,2c0,0.5-0.2,0.9-0.5,1.3
	c-0.3,0.4-0.8,0.6-1.6,0.6h-0.4h-0.1c-0.9,0-1.1,0.1-1.8,0.3c-0.7,0.2-1.5,0.6-2.2,1.3c-0.4,0.3-0.7,0.7-0.9,1.1l-0.9,1.9h5.9h0.4
	c0.9,0,1.7-0.2,2.5-0.5c0.8-0.3,1.5-0.8,2.1-1.4c0.6-0.6,1.1-1.3,1.5-2.1c0.4-0.8,0.5-1.7,0.5-2.6v-10v-6.1v-10c0,0-4.6,0-4.6,0
	v10.5v5.8v1.2l-0.1,0.8c-0.1,0.3-0.2,0.5-0.3,0.8c-0.1,0.2-0.3,0.4-0.6,0.5c-0.3,0.1-0.6,0.2-1.1,0.2c-0.6,0-1-0.1-1.3-0.3
	c-0.3-0.2-0.5-0.4-0.6-0.7c-0.1-0.3-0.2-0.6-0.2-1v-1v-0.7v-0.6v-2.7v-1.9v-4c0-1.1-0.1-2.1-0.3-2.9c-0.2-0.8-0.7-1.7-1.5-2.6
	c-0.6-0.7-1.4-1.2-2.3-1.5c-0.9-0.3-1.8-0.4-2.6-0.4c-1,0-1.9,0.2-2.6,0.5c-0.7,0.3-1.2,0.6-1.7,1c-0.6-0.5-1.2-0.9-1.9-1.1
	c-0.8-0.3-1.6-0.4-2.4-0.4c-1,0-2,0.2-2.8,0.6c-0.8,0.4-1.5,0.9-2,1.5c-0.6,0.6-1,1.4-1.3,2.2c-0.3,0.8-0.4,1.9-0.4,3.2
	C-1197.3,1355.6-1197.3,1359.6-1197.3,1359.6z"/>
<linearGradient id="SVGID_11_" gradientUnits="userSpaceOnUse" x1="-1238.2" y1="1351.2356" x2="-1238.2" y2="1375.5363" gradientTransform="matrix(1 0 0 -1 0 2723.78)">
	<stop  offset="0" style="stop-color:#1B75BB"/>
	<stop  offset="1" style="stop-color:#26A9E0"/>
</linearGradient>
<path class="st11" d="M-1227.7,1352.8c-0.2-0.8-0.7-1.7-1.5-2.6c-0.6-0.7-1.4-1.2-2.3-1.5c-0.9-0.4-1.7-0.5-2.5-0.5
	c-1,0-1.9,0.2-2.6,0.5c-0.7,0.3-1.2,0.6-1.7,1c-0.6-0.5-1.2-0.9-1.9-1.1c-0.9-0.3-1.8-0.4-2.5-0.4c-1,0-2,0.2-2.8,0.6
	s-1.5,0.9-2,1.5c-0.6,0.6-1,1.4-1.3,2.2c-0.3,0.8-0.4,1.9-0.4,3.2v3.1v0.5v13.5h4.6v-13v-2.7v-1.3v-0.9c0-0.3,0.1-0.7,0.2-0.9
	c0.1-0.3,0.3-0.5,0.6-0.7c0.3-0.2,0.7-0.3,1.2-0.3s0.8,0.1,1.1,0.2s0.5,0.3,0.6,0.5c0.1,0.2,0.2,0.5,0.3,0.8l0.1,0.8v0.6v4.4v12.7
	h4.6v-12.6v-5.3l0.1-0.6v-0.2c0.1-0.3,0.2-0.5,0.3-0.8c0.1-0.2,0.3-0.4,0.6-0.6c0.3-0.2,0.6-0.2,1-0.2c0.5,0,0.9,0.1,1.2,0.3
	c0.3,0.2,0.5,0.4,0.6,0.7c0,0.1,0,0.1,0.1,0.2c0.1,0.2,0.1,0.5,0.2,0.7v1v5v12h4.6v-11.7v-5.3c0-0.8-0.1-1.5-0.2-2.2
	C-1227.6,1353.2-1227.6,1353-1227.7,1352.8z"/>
<linearGradient id="SVGID_12_" gradientUnits="userSpaceOnUse" x1="-1272.4" y1="1351.2356" x2="-1272.4" y2="1375.5363" gradientTransform="matrix(1 0 0 -1 0 2723.78)">
	<stop  offset="0" style="stop-color:#1B75BB"/>
	<stop  offset="1" style="stop-color:#26A9E0"/>
</linearGradient>
<path class="st12" d="M-1262.1,1343.9c-0.2-0.4-0.5-0.8-0.9-1.1c-0.7-0.7-1.5-1.1-2.2-1.3c-0.7-0.1-1.5-0.2-2.3-0.2h-2.9h-3.9h-9.2
	l0.8,1.7c0.2,0.4,0.5,0.8,0.9,1.1c0.8,0.7,1.5,1.1,2.2,1.3c0.7,0.2,4,0.3,4.9,0.3c0,0.2,0,4.3,0,9.3c0,4,0,8.5,0,11.9s0,5.9,0,5.9
	h4.6c0,0,0-2.8,0-6.5c0-3.1,0-6.8,0-10.3c0-5.4,0-10,0-10.3c0.7,0,8.8,0,8.8,0L-1262.1,1343.9z"/>
<linearGradient id="SVGID_13_" gradientUnits="userSpaceOnUse" x1="-1220.8" y1="1351.2356" x2="-1220.8" y2="1375.5363" gradientTransform="matrix(1 0 0 -1 0 2723.78)">
	<stop  offset="0" style="stop-color:#1B75BB"/>
	<stop  offset="1" style="stop-color:#26A9E0"/>
</linearGradient>
<path class="st13" d="M-1211.4,1344.1c0.4-0.3,0.7-0.7,0.9-1.1l0.8-1.7h-9.2h-3.9h-2.9c-0.9,0-1.6,0.1-2.3,0.3
	c-0.7,0.2-1.5,0.6-2.2,1.3c-0.4,0.3-0.7,0.7-0.9,1.1l-0.8,1.7c0,0,8.2,0,8.8,0c0,0.2,0,3.5,0,7.7c0,2.4,0,5.1,0,7.7
	c0,6.1,0,11.6,0,11.6h4.6c0,0,0-5.5,0-11.5c0-2.6,0-5.2,0-7.6c0-4.3,0-7.7,0-7.9c0.9,0,4.2-0.1,4.9-0.3
	C-1212.9,1345.2-1212.1,1344.8-1211.4,1344.1z"/>
<linearGradient id="SVGID_14_" gradientUnits="userSpaceOnUse" x1="-1207.5" y1="1351.22" x2="-1207.5" y2="1375.5208" gradientTransform="matrix(1 0 0 -1 0 2723.78)">
	<stop  offset="0" style="stop-color:#1B75BB"/>
	<stop  offset="1" style="stop-color:#26A9E0"/>
</linearGradient>
<path class="st14" d="M-1202.8,1350c-0.6-0.6-1.3-1-2.1-1.4c-0.8-0.3-1.7-0.5-2.5-0.5h-0.4h-5.9l0.9,1.9c0.2,0.4,0.5,0.8,0.9,1.1
	c0.7,0.7,1.5,1.1,2.2,1.3c0.7,0.2,1,0.3,1.8,0.3h0.1h0.4c0.8,0,1.3,0.2,1.6,0.6c0.3,0.4,0.5,0.9,0.5,1.3c0,0,0,0.8,0,1.5l0,0v0.3
	c-0.6,0-3,0-3,0c-1.1,0-2.1,0.2-2.8,0.5c-0.9,0.4-1.5,0.9-2,1.4c-0.4,0.5-0.7,1.1-0.9,1.7c-0.1,0.4-0.2,0.8-0.2,1.2
	c0,0.1,0,0.3,0,0.4v6.2c0,1.2,0.5,2.3,1.5,3.3s2.4,1.5,4.1,1.5h1.4c1.6,0,2.8-0.3,3.7-1c0.8-0.6,1.5-1.4,1.9-2.4
	c0.4-0.9,0.6-2,0.7-3.1l0.1-3v-2.1v-3.3v-3.2c0-0.9-0.2-1.8-0.5-2.6C-1201.7,1351.3-1202.2,1350.6-1202.8,1350z M-1205.4,1361.3
	c0,1.5,0,5.6,0,5.6s0,0.4-0.4,0.9c-0.3,0.3-1,0.4-1,0.4h-1.7h-1.2v-0.8v-5.4c0,0,0-0.3,0.1-0.6c0.1-0.1,0.1-0.2,0.2-0.3
	c0.4-0.3,1-0.2,1-0.2s2.3,0,2.9,0C-1205.4,1360.9-1205.4,1361-1205.4,1361.3z"/>
<linearGradient id="SVGID_15_" gradientUnits="userSpaceOnUse" x1="-1259.4" y1="1351.22" x2="-1259.4" y2="1375.5208" gradientTransform="matrix(1 0 0 -1 0 2723.78)">
	<stop  offset="0" style="stop-color:#1B75BB"/>
	<stop  offset="1" style="stop-color:#26A9E0"/>
</linearGradient>
<path class="st15" d="M-1255,1350c-0.6-0.6-1.3-1-2.1-1.4c-0.8-0.3-1.7-0.5-2.5-0.5h-0.4h-5.9l0.9,2c0.2,0.4,0.5,0.8,0.9,1.1
	c0.7,0.7,1.5,1.1,2.2,1.3c0.7,0.2,1,0.3,1.8,0.3h0.1h0.4c0.8,0,1.3,0.2,1.6,0.6s0.5,0.9,0.5,1.3c0,0,0,0.8,0,1.5v0.3c-0.6,0-3,0-3,0
	c-1.1,0-2.1,0.2-2.8,0.5c-0.1,0-0.2,0.1-0.2,0.1c-0.6,0.3-1.2,0.7-1.5,1.2c-0.4,0.5-0.7,1.1-0.9,1.7c-0.2,0.6-0.2,1.1-0.2,1.6v3.7
	v2.5c0,1.2,0.5,2.3,1.5,3.3s2.4,1.5,4.1,1.5h1.4c1.6,0,2.8-0.3,3.7-1c0.8-0.6,1.5-1.4,1.9-2.4c0.4-0.9,0.6-2,0.7-3.1l0.1-3v-2.9
	v-1.7v-4c0-0.9-0.2-1.8-0.5-2.6C-1253.9,1351.3-1254.4,1350.6-1255,1350z M-1257.6,1362.4c0,1.8,0,4.4,0,4.4s0,0.4-0.4,0.9
	c-0.3,0.3-1,0.4-1,0.4h-1.7h-1.2v-0.8v-3.3v-2.1c0,0,0-0.6,0.4-0.9c0.4-0.3,1-0.2,1-0.2s2.3,0,2.9,0
	C-1257.6,1361-1257.6,1361.6-1257.6,1362.4z"/>
</svg>
