<?xml version="1.0" encoding="UTF-8" standalone="no"?>
<svg width="16px" height="14px" viewBox="0 0 16 14" version="1.1" xmlns="http://www.w3.org/2000/svg" xmlns:xlink="http://www.w3.org/1999/xlink">
    <!-- Generator: Sketch 44.1 (41455) - http://www.bohemiancoding.com/sketch -->
    <title>Fill 1</title>
    <desc>Created with Sketch.</desc>
    <defs></defs>
    <g id="Symbols" stroke="none" stroke-width="1" fill="none" fill-rule="evenodd">
        <g id="ico/ic_look_it_up" transform="translate(0.000000, -1.000000)" fill="#808080">
            <path d="M8.00042559,16 C7.63270877,16 7.33359373,15.7051327 7.33359373,15.3426549 L7.33359373,2.25628319 L2.72948753,6.85465487 C2.60304506,6.98251327 2.43681497,7.05231858 2.2602486,7.05231858 C2.08460258,7.05231858 1.92056718,6.98343363 1.7982309,6.85826549 C1.6702309,6.73189381 1.60120435,6.56785841 1.6002132,6.39256637 C1.59915125,6.21260177 1.66874417,6.04276106 1.7961778,5.91419469 L7.50938134,0.204884956 L7.52311585,0.191787611 C7.65380612,0.0680353982 7.82400081,0 8.00269107,0 C8.17175302,0 8.33274417,0.0612389381 8.4582663,0.172884956 L8.46775302,0.184778761 L14.2024079,5.91568142 C14.3306203,6.0439646 14.4007796,6.21330973 14.3997884,6.39249558 C14.3987265,6.56707965 14.3297707,6.73012389 14.2056645,6.85146903 C14.0773813,6.98258407 13.9124964,7.05231858 13.7367796,7.05231858 C13.560284,7.05231858 13.3943371,6.98272566 13.2694521,6.85649558 L8.66350523,2.25628319 L8.66350523,15.3426549 C8.66350523,15.7051327 8.36601851,16 8.00042559,16" id="Fill-1" transform="translate(8.000000, 8.000000) rotate(90.000000) translate(-8.000000, -8.000000) "></path>
        </g>
    </g>
</svg>