<?xml version="1.0" encoding="utf-8"?>
<!-- Generator: Adobe Illustrator 21.1.0, SVG Export Plug-In . SVG Version: 6.00 Build 0)  -->
<svg version="1.1" id="Layer_1" xmlns="http://www.w3.org/2000/svg" xmlns:xlink="http://www.w3.org/1999/xlink" x="0px" y="0px"
	 viewBox="0 0 128 128" style="enable-background:new 0 0 128 128;" xml:space="preserve">
<style type="text/css">
	.st0{fill:#FFFFFF;stroke:#FFFFFF;stroke-miterlimit:10;}
</style>
<g>
	<path class="st0" d="M17.2,18.1l38.7,93.6c0.3,0.7,1,1.2,1.8,1.2h0.1c0.8,0,1.5-0.6,1.8-1.4l13.1-40.7l40.7-13.1
		c0.8-0.2,1.4-1,1.4-1.8c0.1-0.8-0.4-1.6-1.2-1.9L19.7,15.6c-0.8-0.3-1.6-0.2-2.2,0.4C16.9,16.5,16.8,17.4,17.2,18.1z M24.4,25.4
		l30.4,30.4c0.4,0.4,0.9,0.6,1.4,0.6s1-0.2,1.4-0.6c0.8-0.8,0.8-2,0-2.8L27.8,23.2L107,55.6L70.5,67.4c-0.6,0.2-1.1,0.7-1.3,1.3
		l-11.8,36.5L24.4,25.4z"/>
	<path class="st0" d="M61.2,59.4c-0.8,0.8-0.8,2,0,2.8l2.1,2.1c0.4,0.4,0.9,0.6,1.4,0.6s1-0.2,1.4-0.6c0.8-0.8,0.8-2,0-2.8L64,59.4
		C63.2,58.6,62,58.6,61.2,59.4z"/>
</g>
</svg>
