<?xml version="1.0" encoding="utf-8"?>
<!-- Generator: Adobe Illustrator 21.1.0, SVG Export Plug-In . SVG Version: 6.00 Build 0)  -->
<svg version="1.1" id="Layer_1" xmlns="http://www.w3.org/2000/svg" xmlns:xlink="http://www.w3.org/1999/xlink" x="0px" y="0px"
	 viewBox="0 0 115 115" style="enable-background:new 0 0 115 115;" xml:space="preserve">
<style type="text/css">
	.st0{fill:#0079BC;}
	.st1{fill:none;stroke:#E60000;stroke-width:6;stroke-linecap:round;stroke-linejoin:round;stroke-miterlimit:10;}
	.st2{fill:none;stroke:#FFFFFF;stroke-width:4;stroke-linecap:round;stroke-linejoin:round;stroke-miterlimit:10;}
</style>
<g>
	<g>
		<path class="st0" d="M75.2,6C93.9,6,109,21.1,109,39.8v35.5c0,18.6-15.1,33.8-33.8,33.8H6V39.8C6,21.1,21.1,6,39.8,6H75.2 M75.2,0
			H39.8C17.9,0,0,17.9,0,39.8v70.6c0,2.5,2.1,4.6,4.6,4.6h70.6c21.9,0,39.8-17.9,39.8-39.8V39.8C115,17.9,97.1,0,75.2,0L75.2,0z"/>
	</g>
	<g>
		<path class="st1" d="M36.2,74c4.1,7.8,12.3,13.2,21.8,13.2S75.6,81.8,79.7,74"/>
		<g>
			<circle class="st0" cx="34.5" cy="47.1" r="12.5"/>
			<g>
				<circle class="st0" cx="80.5" cy="47.1" r="12.5"/>
				<g>
					<polyline class="st2" points="85.8,43.7 79,50.5 75.1,46.6 					"/>
				</g>
			</g>
		</g>
	</g>
</g>
</svg>
