<?xml version="1.0" encoding="utf-8"?>
<!-- Generator: Adobe Illustrator 21.1.0, SVG Export Plug-In . SVG Version: 6.00 Build 0)  -->
<svg version="1.1" id="Layer_1" xmlns="http://www.w3.org/2000/svg" xmlns:xlink="http://www.w3.org/1999/xlink" x="0px" y="0px"
	 viewBox="0 0 557.1 353" style="enable-background:new 0 0 557.1 353;" xml:space="preserve">
<style type="text/css">
	.st0{fill:#FFFFFF;}
	.st1{fill:#C1C0C0;}
</style>
<title>Asset 1</title>
<g>
	<g>
		<rect x="1" y="1" class="st0" width="555.1" height="351"/>
		<path class="st1" d="M555.1,2v349H2V2H555.1 M557.1,0H0v353h557.1V0L557.1,0z"/>
	</g>
	<g>
		<path class="st0" d="M247.4,157.5h64v-44h-64V157.5z M249.4,155.5V151l22-19.1l12.2,12.2l6.1-8.1l19.8,17v2.5H249.4z M309.4,115.5
			v34.8L289.3,133l-5.9,7.9l-11.8-11.8l-22,19.2v-32.8H309.4z"/>
		<path class="st0" d="M298.4,131.5c3.3,0,6-2.7,6-6c0-3.3-2.7-6-6-6c-3.3,0-6,2.7-6,6C292.4,128.8,295.1,131.5,298.4,131.5z
			 M298.4,121.5c2.2,0,4,1.8,4,4s-1.8,4-4,4c-2.2,0-4-1.8-4-4S296.2,121.5,298.4,121.5z"/>
	</g>
	<g>
		<rect x="59" y="52.3" class="st1" width="310" height="18.7"/>
		<g>
			<g>
				<rect x="110.5" y="117.1" class="st1" width="399" height="8.5"/>
				<rect x="110.5" y="138.6" class="st1" width="313.4" height="8.5"/>
			</g>
			<path class="st1" d="M79.2,111.6c-11.3,0-20.5,9.2-20.5,20.5s9.2,20.5,20.5,20.5s20.5-9.2,20.5-20.5S90.5,111.6,79.2,111.6z
				 M81,141.9c-0.5,0.5-1.1,0.7-1.9,0.7c-0.8,0-1.4-0.2-1.9-0.7c-0.5-0.5-0.8-1.1-0.8-1.8c0-0.7,0.3-1.3,0.8-1.8
				c0.5-0.5,1.1-0.7,1.9-0.7c0.8,0,1.4,0.2,1.9,0.7c0.5,0.5,0.8,1.1,0.8,1.8C81.8,140.8,81.5,141.4,81,141.9z M84.7,130.6
				c-0.5,0.7-1,1.3-1.7,1.8c-0.7,0.6-1.2,1.1-1.4,1.5c-0.2,0.4-0.4,0.9-0.4,1.5v0.4h-4.5v-1.1c0-0.8,0.1-1.5,0.4-2
				c0.3-0.6,0.7-1.1,1.2-1.6c0.7-0.6,1.2-1.1,1.6-1.6c0.4-0.4,0.6-0.9,0.6-1.4c0-0.4-0.2-0.8-0.5-1c-0.3-0.3-0.7-0.4-1.2-0.4
				c-0.5,0-1,0.2-1.6,0.5s-1.1,0.8-1.8,1.5l-2.8-2.8c0.3-0.3,0.6-0.6,1-1c0.4-0.4,0.9-0.7,1.4-1c0.5-0.3,1.1-0.6,1.8-0.8
				c0.7-0.2,1.5-0.3,2.3-0.3c1.9,0,3.4,0.5,4.4,1.4c1,1,1.6,2.2,1.6,3.8C85.4,129.1,85.2,130,84.7,130.6z"/>
		</g>
		<g>
			<g>
				<rect x="110.5" y="194.3" class="st1" width="399" height="8.5"/>
				<rect x="110.5" y="215.8" class="st1" width="313.4" height="8.5"/>
			</g>
			<path class="st1" d="M79.2,188.8c-11.3,0-20.5,9.2-20.5,20.5s9.2,20.5,20.5,20.5s20.5-9.2,20.5-20.5S90.5,188.8,79.2,188.8z
				 M81,219.1c-0.5,0.5-1.1,0.7-1.9,0.7c-0.8,0-1.4-0.2-1.9-0.7c-0.5-0.5-0.8-1.1-0.8-1.8c0-0.7,0.3-1.3,0.8-1.8
				c0.5-0.5,1.1-0.7,1.9-0.7c0.8,0,1.4,0.2,1.9,0.7c0.5,0.5,0.8,1.1,0.8,1.8C81.8,218,81.5,218.6,81,219.1z M84.7,207.8
				c-0.5,0.7-1,1.3-1.7,1.8c-0.7,0.6-1.2,1.1-1.4,1.5c-0.2,0.4-0.4,0.9-0.4,1.5v0.4h-4.5V212c0-0.8,0.1-1.5,0.4-2
				c0.3-0.6,0.7-1.1,1.2-1.6c0.7-0.6,1.2-1.1,1.6-1.6c0.4-0.4,0.6-0.9,0.6-1.4c0-0.4-0.2-0.8-0.5-1c-0.3-0.3-0.7-0.4-1.2-0.4
				c-0.5,0-1,0.2-1.6,0.5s-1.1,0.8-1.8,1.5l-2.8-2.8c0.3-0.3,0.6-0.6,1-1c0.4-0.4,0.9-0.7,1.4-1c0.5-0.3,1.1-0.6,1.8-0.8
				c0.7-0.2,1.5-0.3,2.3-0.3c1.9,0,3.4,0.5,4.4,1.4c1,1,1.6,2.2,1.6,3.8C85.4,206.3,85.2,207.2,84.7,207.8z"/>
		</g>
		<g>
			<g>
				<rect x="110.5" y="271.5" class="st1" width="399" height="8.5"/>
				<rect x="110.5" y="293" class="st1" width="313.4" height="8.5"/>
			</g>
			<path class="st1" d="M79.2,266c-11.3,0-20.5,9.2-20.5,20.5S67.8,307,79.2,307s20.5-9.2,20.5-20.5S90.5,266,79.2,266z M81,296.3
				c-0.5,0.5-1.1,0.7-1.9,0.7c-0.8,0-1.4-0.2-1.9-0.7c-0.5-0.5-0.8-1.1-0.8-1.8c0-0.7,0.3-1.3,0.8-1.8c0.5-0.5,1.1-0.7,1.9-0.7
				c0.8,0,1.4,0.2,1.9,0.7c0.5,0.5,0.8,1.1,0.8,1.8C81.8,295.2,81.5,295.8,81,296.3z M84.7,285.1c-0.5,0.7-1,1.3-1.7,1.8
				c-0.7,0.6-1.2,1.1-1.4,1.5c-0.2,0.4-0.4,0.9-0.4,1.5v0.4h-4.5v-1.1c0-0.8,0.1-1.5,0.4-2c0.3-0.6,0.7-1.1,1.2-1.6
				c0.7-0.6,1.2-1.1,1.6-1.6c0.4-0.4,0.6-0.9,0.6-1.4c0-0.4-0.2-0.8-0.5-1c-0.3-0.3-0.7-0.4-1.2-0.4c-0.5,0-1,0.2-1.6,0.5
				s-1.1,0.8-1.8,1.5l-2.8-2.8c0.3-0.3,0.6-0.6,1-1c0.4-0.4,0.9-0.7,1.4-1c0.5-0.3,1.1-0.6,1.8-0.8c0.7-0.2,1.5-0.3,2.3-0.3
				c1.9,0,3.4,0.5,4.4,1.4c1,1,1.6,2.2,1.6,3.8C85.4,283.5,85.2,284.4,84.7,285.1z"/>
		</g>
	</g>
</g>
</svg>
