<svg xmlns="http://www.w3.org/2000/svg" viewBox="0 0 512.97435 175.08109"><defs><style>.cls-1{fill:#c2c1c0;}.cls-2{fill:#fff;}</style></defs><title>Asset 1</title><g id="Layer_2" data-name="Layer 2"><g id="Layer_1-2" data-name="Layer 1"><rect class="cls-1" width="512.97435" height="175.08109"/><path class="cls-2" d="M224.48718,109.54054h64v-44h-64Zm2-2v-4.544l21.952-19.09,12.156,12.156,6.051-8.068,19.841,17.005v2.541Zm60-40v34.826l-20.16-17.28-5.949,7.932-11.843-11.844-22.048,19.171v-32.805Z"/><path class="cls-2" d="M275.48718,83.54054a6,6,0,1,0-6-6A6.006,6.006,0,0,0,275.48718,83.54054Zm0-10a4,4,0,1,1-4,4A4.004,4.004,0,0,1,275.48718,73.54054Z"/></g></g></svg>