<?xml version="1.0" encoding="utf-8"?>
<!-- Generator: Adobe Illustrator 21.1.0, SVG Export Plug-In . SVG Version: 6.00 Build 0)  -->
<svg version="1.1" id="Layer_1" xmlns="http://www.w3.org/2000/svg" xmlns:xlink="http://www.w3.org/1999/xlink" x="0px" y="0px"
	 viewBox="0 0 557.1 353" style="enable-background:new 0 0 557.1 353;" xml:space="preserve">
<style type="text/css">
	.st0{fill:#FFFFFF;}
	.st1{fill:#C1C0C0;}
</style>
<title>Asset 1</title>
<g>
	<g>
		<rect x="1.9" y="0.5" class="st0" width="555.1" height="351"/>
		<path class="st1" d="M556,1.5v349H2.9V1.5H556 M558-0.5H0.9v353H558V-0.5L558-0.5z"/>
	</g>
	<g>
		<rect x="23" y="93.1" class="st1" width="513" height="8.5"/>
		<rect x="23" y="118.2" class="st1" width="513" height="8.5"/>
		<rect x="23" y="143.3" class="st1" width="513" height="8.5"/>
		<rect x="23" y="168.4" class="st1" width="513" height="8.5"/>
		<rect x="23" y="193.5" class="st1" width="513" height="8.5"/>
		<rect x="23" y="218.6" class="st1" width="426" height="8.5"/>
	</g>
	<g>
		<rect x="23" y="258.4" class="st1" width="513" height="8.5"/>
		<rect x="23" y="283.5" class="st1" width="513" height="8.5"/>
		<rect x="23" y="308.6" class="st1" width="426" height="8.5"/>
	</g>
	<rect x="101.9" y="39.3" class="st1" width="355.1" height="18.7"/>
</g>
</svg>
