<?xml version="1.0" encoding="utf-8"?>
<!-- Generator: Adobe Illustrator 21.1.0, SVG Export Plug-In . SVG Version: 6.00 Build 0)  -->
<svg version="1.1" id="Layer_1" xmlns="http://www.w3.org/2000/svg" xmlns:xlink="http://www.w3.org/1999/xlink" x="0px" y="0px"
	 viewBox="0 0 557.1 353" style="enable-background:new 0 0 557.1 353;" xml:space="preserve">
<style type="text/css">
	.st0{fill:#FFFFFF;}
	.st1{fill:#C1C0C0;}
</style>
<title>Asset 1</title>
<g>
	<g>
		<rect x="1" y="1" class="st0" width="555.1" height="351"/>
		<path class="st1" d="M555.1,2v349H2V2H555.1 M557.1,0H0v353h557.1V0L557.1,0z"/>
	</g>
	<rect x="22.1" y="21.6" class="st1" width="513" height="175.1"/>
	<rect x="22.1" y="274.6" class="st1" width="513" height="8.5"/>
	<rect x="22.1" y="296.1" class="st1" width="513" height="8.5"/>
	<rect x="22.1" y="317.6" class="st1" width="403" height="8.5"/>
	<rect x="150.1" y="225.8" class="st1" width="256.9" height="18.7"/>
	<g>
		<path class="st0" d="M246.6,131.2h64v-44h-64V131.2z M248.6,129.2v-4.5l22-19.1l12.2,12.2l6.1-8.1l19.8,17v2.5H248.6z M308.6,89.2
			V124l-20.2-17.3l-5.9,7.9l-11.8-11.8l-22,19.2V89.2H308.6z"/>
		<path class="st0" d="M297.6,105.2c3.3,0,6-2.7,6-6c0-3.3-2.7-6-6-6s-6,2.7-6,6C291.6,102.5,294.2,105.2,297.6,105.2z M297.6,95.2
			c2.2,0,4,1.8,4,4c0,2.2-1.8,4-4,4s-4-1.8-4-4C293.6,97,295.3,95.2,297.6,95.2z"/>
	</g>
</g>
</svg>
