<?xml version="1.0" encoding="utf-8"?>
<!-- Generator: Adobe Illustrator 21.1.0, SVG Export Plug-In . SVG Version: 6.00 Build 0)  -->
<svg version="1.1" id="Layer_1" xmlns="http://www.w3.org/2000/svg" xmlns:xlink="http://www.w3.org/1999/xlink" x="0px" y="0px"
	 viewBox="0 0 557.1 353" style="enable-background:new 0 0 557.1 353;" xml:space="preserve">
<style type="text/css">
	.st0{fill:#FFFFFF;}
	.st1{fill:#C1C0C0;}
</style>
<title>Asset 1</title>
<g>
	<g>
		<rect x="1" y="1" class="st0" width="555.1" height="351"/>
		<path class="st1" d="M555.1,2v349H2V2H555.1 M557.1,0H0v353h557.1V0L557.1,0z"/>
	</g>
	<rect x="23" y="25.6" class="st1" width="513" height="219.8"/>
	<rect x="151" y="279.3" class="st1" width="256.9" height="18.7"/>
	<g>
		<path class="st0" d="M247.4,157.5h64v-44h-64V157.5z M249.4,155.5V151l22-19.1l12.2,12.2l6.1-8.1l19.8,17v2.5H249.4z M309.4,115.5
			v34.8L289.3,133l-5.9,7.9l-11.8-11.8l-22,19.2v-32.8H309.4z"/>
		<path class="st0" d="M298.4,131.5c3.3,0,6-2.7,6-6c0-3.3-2.7-6-6-6c-3.3,0-6,2.7-6,6C292.4,128.8,295.1,131.5,298.4,131.5z
			 M298.4,121.5c2.2,0,4,1.8,4,4s-1.8,4-4,4c-2.2,0-4-1.8-4-4S296.2,121.5,298.4,121.5z"/>
	</g>
</g>
</svg>
