<?xml version="1.0" encoding="utf-8"?>
<!-- Generator: Adobe Illustrator 20.0.0, SVG Export Plug-In . SVG Version: 6.00 Build 0)  -->
<svg version="1.1" id="Layer_1" xmlns="http://www.w3.org/2000/svg" xmlns:xlink="http://www.w3.org/1999/xlink" x="0px" y="0px"
	 viewBox="0 0 12.8 12.8" style="enable-background:new 0 0 12.8 12.8;" xml:space="preserve">
<style type="text/css">
	.st0{fill:#070707;}
</style>
<path class="st0" d="M9.8,8.3C9.4,8.3,9,8.4,8.7,8.7L4.5,6.6c0-0.1,0-0.2,0-0.2c0-0.1,0-0.2,0-0.2l4.2-2.1C9,4.4,9.4,4.5,9.8,4.5
	c0.9,0,1.6-0.7,1.6-1.6s-0.7-1.6-1.6-1.6S8.3,2.1,8.3,3c0,0.1,0,0.2,0,0.2L4.1,5.3C3.8,5,3.4,4.8,3,4.8c-0.9,0-1.6,0.7-1.6,1.6
	S2.1,8,3,8c0.4,0,0.8-0.2,1.1-0.5l4.2,2.1c0,0.1,0,0.2,0,0.2c0,0.9,0.7,1.6,1.6,1.6s1.6-0.7,1.6-1.6S10.7,8.3,9.8,8.3z"/>
</svg>
