<?xml version="1.0" encoding="UTF-8"?>
<svg width="642px" height="69px" viewBox="0 0 642 69" version="1.1" xmlns="http://www.w3.org/2000/svg" xmlns:xlink="http://www.w3.org/1999/xlink">
    <!-- Generator: Sketch 64 (93537) - https://sketch.com -->
    <title>Logo/Logo-Webinars-White</title>
    <desc>Created with Sketch.</desc>
    <g id="Logo/Logo-Webinars-White" stroke="none" stroke-width="1" fill="none" fill-rule="evenodd">
        <g id="Logo-Webinars">
            <path d="M46.9143873,11.4981971 C47.4838408,11.4945923 48.0140216,11.7952867 48.3156356,12.2924024 L48.3156356,12.2924024 L51.7307855,17.9320391 C52.0901303,18.5257489 52.055963,19.2859722 51.6451711,19.8429035 L51.6451711,19.8429035 L43.6040954,30.7362048 L41.568201,33.5681479 L51.3031063,47.0711048 C51.8368216,47.8111202 52.1231193,48.7091618 52.1200031,49.6306447 L52.1200031,49.6306447 L52.0547849,67.4896288 C52.0516431,68.3327047 51.3863643,69.0149254 50.5671368,69.0149254 L50.5671368,69.0149254 L49.4309789,69.0149254 C48.6867621,69.0149254 48.0572215,68.4491026 47.9570762,67.6904959 L47.9570762,67.6904959 L45.8332112,51.597283 C45.7574149,51.0249937 45.4703319,50.505245 45.0308709,50.1459476 L45.0308709,50.1459476 L33.8739029,41.0329673 L28.587411,44.3458597 C27.8891433,44.7831599 27.0903375,45.0212097 26.2730736,45.0349511 L26.2730736,45.0349511 L4.20969711,45.40799 C3.56248379,45.4184981 2.94079769,45.146499 2.49898035,44.6590831 L2.49898035,44.6590831 L0.266722748,42.1957331 C-0.278381676,41.5939401 0.0593631402,40.6102168 0.851099826,40.4946273 L0.851099826,40.4946273 L23.7058203,37.1534437 L41.0706165,17.9478013 L27.0329994,15.2261936 C26.6308475,15.1485951 26.2534373,14.9691484 25.9349361,14.7048284 L25.9349361,14.7048284 L23.6700822,12.8254883 C23.1776031,12.4168835 23.4587953,11.5976529 24.0914777,11.598057 L24.0914777,11.598057 L32.1737897,11.6045236 Z M58.5132406,4 C62.1011295,4 65.0149254,6.91087248 65.0149254,10.5057703 C65.0149254,14.0895715 62.1011295,16.9960846 58.5132406,16.9960846 C54.9178133,16.9960846 52.0119526,14.0895715 52.0119526,10.5057703 C52.0119526,6.91087248 54.9178133,4 58.5132406,4 Z" id="Combined-Shape" fill="#FFFFFF"></path>
            <path d="M94.8467389,15 C102.797536,15 107.716492,20.1843928 107.716492,27.24873 C107.716492,33.9142678 103.426575,37.5604891 99.3084237,38.5291672 L107.945902,53 L98.564874,53 L91.0717351,39.4978453 L85.122951,39.4978453 L85.122951,53 L77,53 L77,15 L94.8467389,15 Z M141.05082,15 L141.05082,22.1214358 L121.93117,22.1214358 L121.93117,30.0975056 L140.645636,30.0975056 L140.645636,37.2189414 L121.93117,37.2189414 L121.93117,45.8789495 L141.05082,45.8789495 L141.05082,53 L113.703279,53 L113.703279,15 L141.05082,15 Z M166.260757,15 C174.632641,15 179.193443,20.5832488 179.193443,27.2488542 C179.193443,33.8574326 174.57485,39.4410667 166.260757,39.4410667 L156.446052,39.4410667 L156.446052,53 L148.247541,53 L148.247541,15 L166.260757,15 Z M192.229038,15 L192.229038,45.8789495 L209.419673,45.8789495 L209.419673,53 L183.511476,53 L183.511476,15 L192.229038,15 Z M209.849509,15.0105939 L219.645442,30.1633818 L229.441376,15.0105939 L239,15.0105939 L223.860392,37.3714828 L223.860392,52.8647354 L215.430091,52.8647354 L215.430091,37.3714828 L200.231055,15.0105939 L209.849509,15.0105939 Z M93.7023998,22.1217489 L85.122951,22.1217489 L85.122951,32.3764817 L93.7023998,32.3764817 C96.9060078,32.3764817 99.3652924,30.4395109 99.3652924,27.1920889 C99.3652924,24.0583344 96.9060078,22.1217489 93.7023998,22.1217489 Z M165.1065,22.1214358 L156.446052,22.1214358 L156.446052,32.3192456 L165.1065,32.3192456 C168.339671,32.3192456 170.822341,30.3822551 170.822341,27.2488542 C170.822341,24.0584263 168.339671,22.1214358 165.1065,22.1214358 Z" id="Combined-Shape" fill="#FFFFFF"></path>
            <g id="Group-10" transform="translate(251.000000, 0.000000)">
                <g id="Group-5">
                    <g id="Group">
                        <rect id="Rectangle" fill="#00B03E" x="0" y="0" width="391" height="69" rx="34.5"></rect>
                        <path d="M100.7584,52.9 L106.8948,28.6718 L113.0841,52.9 L121.072,52.9 L131.123,17.6157 L122.659,17.6157 L116.5226,43.1135 L109.8572,17.6157 L103.9853,17.6157 L97.267,43.1135 L91.0777,17.6157 L82.6666,17.6157 L92.7705,52.9 L100.7584,52.9 Z M160.7861,52.9 L160.7861,46.2875 L143.3291,46.2875 L143.3291,38.2996 L160.4158,38.2996 L160.4158,31.6871 L143.3291,31.6871 L143.3291,24.2282 L160.7861,24.2282 L160.7861,17.6157 L135.8173,17.6157 L135.8173,52.9 L160.7861,52.9 Z M186.9578,52.9 C193.6761,52.9 197.2204,48.668 197.2204,43.378 C197.2204,38.9344 194.2051,35.2843 190.4492,34.7024 C193.7819,34.0147 196.5327,31.0523 196.5327,26.6087 C196.5327,21.9006 193.0942,17.6157 186.3759,17.6157 L167.808,17.6157 L167.808,52.9 L186.9578,52.9 Z M184.736,31.74 L175.3198,31.74 L175.3198,24.0695 L184.736,24.0695 C187.2752,24.0695 188.8622,25.7094 188.8622,27.9312 C188.8622,30.153 187.2752,31.74 184.736,31.74 Z M185.0005,46.3933 L175.3198,46.3933 L175.3198,38.1938 L185.0005,38.1938 C187.9629,38.1938 189.5499,40.0982 189.5499,42.32 C189.5499,44.8592 187.8571,46.3933 185.0005,46.3933 Z M211.5425,52.9 L211.5425,17.6157 L204.0307,17.6157 L204.0307,52.9 L211.5425,52.9 Z M227.1871,52.9 L227.1871,29.8885 L244.0093,52.9 L251.2566,52.9 L251.2566,17.6157 L243.7448,17.6157 L243.7448,39.7808 L227.3987,17.6157 L219.6753,17.6157 L219.6753,52.9 L227.1871,52.9 Z M264.2033,52.9 L266.4251,46.9223 L281.5545,46.9223 L283.7234,52.9 L292.2932,52.9 L278.6979,17.6157 L269.2817,17.6157 L255.6335,52.9 L264.2033,52.9 Z M279.4914,40.3098 L268.4882,40.3098 L273.9898,25.1275 L279.4914,40.3098 Z M304.2348,52.9 L304.2348,40.3627 L309.7364,40.3627 L316.6663,52.9 L325.289,52.9 L317.354,39.4634 C321.1628,38.5641 325.0774,35.2314 325.0774,28.9892 C325.0774,22.4296 320.5809,17.6157 313.2278,17.6157 L296.723,17.6157 L296.723,52.9 L304.2348,52.9 Z M312.1169,33.7502 L304.2348,33.7502 L304.2348,24.2282 L312.1169,24.2282 C315.1322,24.2282 317.4069,26.0268 317.4069,28.9892 C317.4069,31.9516 315.1322,33.7502 312.1169,33.7502 Z M344.425,53.5348 C353.947,53.5348 358.5493,48.668 358.5493,42.2142 C358.5493,29.0421 338.2886,32.798 338.2886,27.1906 C338.2886,25.0746 340.0872,23.6463 343.3141,23.6463 C346.9113,23.6463 350.7201,24.863 353.5767,27.508 L357.7558,22.0064 C354.2644,18.7795 349.6092,17.0867 344.0018,17.0867 C335.6965,17.0867 330.6181,21.9535 330.6181,27.8254 C330.6181,41.1033 350.9317,36.8184 350.9317,43.0606 C350.9317,45.0708 348.9215,46.9752 344.7953,46.9752 C339.9285,46.9752 336.0668,44.8063 333.5805,42.2142 L329.5072,47.9274 C332.787,51.2601 337.6538,53.5348 344.425,53.5348 Z" id="WEBINARS" fill="#FFFFFF" fill-rule="nonzero"></path>
                        <circle id="Oval" fill="#FFFFFF" cx="34.5" cy="34.5" r="25.3"></circle>
                    </g>
                </g>
                <polygon id="Triangle" fill="#00B03E" transform="translate(37.333333, 34.571429) scale(-1, 1) rotate(-90.000000) translate(-37.333333, -34.571429) " points="37.3333333 24 49.6666667 45.1428571 25 45.1428571"></polygon>
            </g>
        </g>
    </g>
</svg>