<svg width="100" height="101" viewBox="0 0 100 101" fill="none" xmlns="http://www.w3.org/2000/svg">
<circle cx="50" cy="50.3036" r="50" fill="#06B03E"/>
<g clip-path="url(#clip0)">
<path d="M68.4707 66.9704C67.8392 66.9704 67.2336 67.2258 66.7871 67.6804C66.3406 68.135 66.0897 68.7517 66.0897 69.3946V70.6067C66.0897 70.9282 65.9643 71.2365 65.741 71.4638C65.5178 71.6912 65.215 71.8189 64.8992 71.8189H51.804C51.4883 71.8189 51.1854 71.6912 50.9622 71.4638C50.7389 71.2365 50.6135 70.9282 50.6135 70.6067V31.8189C50.6135 31.4974 50.7389 31.1891 50.9622 30.9618C51.1854 30.7345 51.4883 30.6067 51.804 30.6067H64.8992C65.215 30.6067 65.5178 30.7345 65.741 30.9618C65.9643 31.1891 66.0897 31.4974 66.0897 31.8189V34.2431C66.0897 34.8861 66.3406 35.5027 66.7871 35.9573C67.2336 36.4119 67.8392 36.6673 68.4707 36.6673C69.1021 36.6673 69.7077 36.4119 70.1542 35.9573C70.6008 35.5027 70.8516 34.8861 70.8516 34.2431V28.1825C70.8516 27.5396 70.6008 26.9229 70.1542 26.4683C69.7077 26.0137 69.1021 25.7583 68.4707 25.7583H50.6135V23.334C50.6134 23.1526 50.5734 22.9736 50.4963 22.8101C50.4193 22.6466 50.3071 22.5027 50.1682 22.3892C50.0293 22.2757 49.8671 22.1953 49.6936 22.1541C49.5202 22.1129 49.3398 22.1118 49.1659 22.151L27.7373 26.9995C27.4727 27.0591 27.236 27.2088 27.0663 27.4239C26.8966 27.639 26.8041 27.9066 26.804 28.1825V74.2431C26.8036 74.5194 26.8959 74.7876 27.0656 75.0032C27.2353 75.2188 27.4723 75.3689 27.7373 75.4286L49.1659 80.277C49.3402 80.3146 49.5205 80.3123 49.6938 80.2704C49.8671 80.2285 50.0292 80.148 50.1683 80.0346C50.3073 79.921 50.4194 79.7771 50.4965 79.6134C50.5736 79.4498 50.6135 79.2706 50.6135 79.0892V76.6649H68.4707C69.1021 76.6649 69.7077 76.4095 70.1542 75.9549C70.6008 75.5002 70.8516 74.8836 70.8516 74.2407V69.3922C70.851 68.7497 70.5998 68.1337 70.1534 67.6796C69.707 67.2254 69.1017 66.9704 68.4707 66.9704ZM44.6611 52.4249C44.6611 53.1441 44.4517 53.8472 44.0592 54.4452C43.6668 55.0432 43.109 55.5093 42.4564 55.7845C41.8038 56.0597 41.0857 56.1317 40.393 55.9914C39.7002 55.8511 39.0638 55.5048 38.5643 54.9962C38.0648 54.4877 37.7247 53.8397 37.5869 53.1343C37.4491 52.429 37.5198 51.6978 37.7901 51.0333C38.0604 50.3689 38.5182 49.801 39.1055 49.4014C39.6928 49.0018 40.3833 48.7886 41.0897 48.7886C42.0369 48.7886 42.9453 49.1717 43.6151 49.8536C44.2849 50.5356 44.6611 51.4605 44.6611 52.4249Z" fill="white"/>
<path d="M80.3381 48.7882H70.5167V44.5458C70.5167 44.1069 70.3998 43.6762 70.1783 43.2997C69.9568 42.9232 69.639 42.615 69.259 42.4079C68.8789 42.2009 68.4508 42.1027 68.0202 42.124C67.5897 42.1453 67.1729 42.2852 66.8143 42.5288L55.2072 50.4076C54.8811 50.629 54.6137 50.9289 54.4288 51.2808C54.2438 51.6326 54.1471 52.0255 54.1471 52.4246C54.1471 52.8236 54.2438 53.2165 54.4288 53.5684C54.6137 53.9202 54.8811 54.2202 55.2072 54.4415L66.8143 62.3203C67.1729 62.5639 67.5897 62.7038 68.0202 62.7251C68.4508 62.7464 68.8789 62.6483 69.259 62.4412C69.639 62.2342 69.9568 61.926 70.1783 61.5494C70.3998 61.1729 70.5167 60.7423 70.5167 60.3034V56.0609H80.3381C80.8071 56.0609 81.2715 55.9669 81.7048 55.7841C82.1381 55.6014 82.5318 55.3335 82.8635 54.9959C83.1951 54.6582 83.4582 54.2573 83.6377 53.8162C83.8172 53.375 83.9095 52.9021 83.9095 52.4246C83.9095 51.947 83.8172 51.4742 83.6377 51.033C83.4582 50.5918 83.1951 50.1909 82.8635 49.8533C82.5318 49.5156 82.1381 49.2478 81.7048 49.065C81.2715 48.8823 80.8071 48.7882 80.3381 48.7882Z" fill="white"/>
</g>
<defs>
<clipPath id="clip0">
<rect width="57.1429" height="58.1818" fill="white" transform="translate(26.7859 22.1218)"/>
</clipPath>
</defs>
</svg>
