<?xml version="1.0" encoding="UTF-8"?>
<svg width="101px" height="168px" viewBox="0 0 101 168" version="1.1" xmlns="http://www.w3.org/2000/svg" xmlns:xlink="http://www.w3.org/1999/xlink">
    <!-- Generator: Sketch 52.5 (67469) - http://www.bohemiancoding.com/sketch -->
    <title>Guru-01</title>
    <desc>Created with Sketch.</desc>
    <defs>
        <polygon id="path-1" points="0.0002 0.9883 100 0.9883 100 100.9883 0.0002 100.9883"></polygon>
        <polygon id="path-3" points="0.0002 0.04 62.9722 0.04 62.9722 76 0.0002 76"></polygon>
    </defs>
    <g id="Symbols" stroke="none" stroke-width="1" fill="none" fill-rule="evenodd">
        <g id="C2A-Bot-Active-Help" transform="translate(-253.000000, -104.000000)">
            <g id="Group-7" transform="translate(129.000000, 73.000000)">
                <g id="Guru-02" transform="translate(125.000000, 30.000000)">
                    <g id="Group-5-Copy" transform="translate(0.000000, 134.000000)" fill="#FFFFFF" font-family="Montserrat-Bold, Montserrat" font-size="17.1288383" font-weight="bold" line-spacing="18">
                        <text id="VIRTUAL-ASSISTANT">
                            <tspan x="10.3830377" y="17.5716712">VIRTUAL</tspan>
                            <tspan x="88.7474731" y="17.9656345" font-family="Montserrat-Medium, Montserrat" font-weight="400"> </tspan>
                            <tspan x="-0.236842105" y="35.5716712">ASSISTANT</tspan>
                        </text>
                    </g>
                    <g id="Group-23">
                        <g id="Group-3" transform="translate(0.000000, 0.012000)">
                            <mask id="mask-2" fill="white">
                                <use xlink:href="#path-1"></use>
                            </mask>
                            <g id="Clip-2"></g>
                            <path d="M50.0002,0.9883 C77.6142,0.9883 100.0002,23.3743 100.0002,50.9883 C100.0002,78.6023 77.6142,100.9883 50.0002,100.9883 C22.3862,100.9883 0.0002,78.6023 0.0002,50.9883 C0.0002,23.3743 22.3862,0.9883 50.0002,0.9883" id="Fill-1" fill-opacity="0.2" fill="#1C4585" mask="url(#mask-2)"></path>
                        </g>
                        <polygon id="Fill-4" fill="#FEFEFE" points="72.7365 41.1106 44.1615 24.5626 38.7115 27.6886 72.7365 47.3916"></polygon>
                        <g id="Group-22" transform="translate(18.000000, 22.012000)">
                            <path d="M54.7365,16.6504 C54.7365,14.2874 53.4675,12.1034 51.4065,10.9214 L34.8155,1.4074 C32.7555,0.2254 30.2165,0.2254 28.1565,1.4074 L27.2335,1.9364 L54.7365,17.8634 L54.7365,16.6504 Z" id="Fill-5" fill="#FEFEFE"></path>
                            <polygon id="Fill-7" fill="#FEFEFE" points="54.7365 26.6152 19.6395 6.2912 14.1785 9.4232 54.7365 32.9092"></polygon>
                            <polygon id="Fill-9" fill="#FEFEFE" points="25.0612 16.96 8.2352 26.704 8.2352 32.997 30.4962 20.106"></polygon>
                            <polygon id="Fill-11" fill="#FEFEFE" points="18.571 13.2012 8.235 19.1862 8.235 25.4692 23.995 16.3432"></polygon>
                            <path d="M13.1071,10.0371 L11.5651,10.9221 C9.5041,12.1031 8.2351,14.2871 8.2351,16.6501 L8.2351,17.9511 L17.5041,12.5831 L13.1071,10.0371 Z" id="Fill-13" fill="#FEFEFE"></path>
                            <path d="M25.0832,35.6699 C26.0602,35.6699 26.8522,34.8829 26.8522,33.9129 C26.8522,32.9419 26.0602,32.1549 25.0832,32.1549 C24.1052,32.1549 23.3132,32.9419 23.3132,33.9129 C23.3132,34.8829 24.1052,35.6699 25.0832,35.6699" id="Fill-15" fill="#FEFEFE"></path>
                            <path d="M37.8889,35.6699 C38.8659,35.6699 39.6589,34.8829 39.6589,33.9129 C39.6589,32.9419 38.8659,32.1549 37.8889,32.1549 C36.9119,32.1549 36.1199,32.9419 36.1199,33.9129 C36.1199,34.8829 36.9119,35.6699 37.8889,35.6699" id="Fill-17" fill="#FEFEFE"></path>
                            <g id="Group-21" transform="translate(0.000000, 29.000000)">
                                <mask id="mask-4" fill="white">
                                    <use xlink:href="#path-3"></use>
                                </mask>
                                <g id="Clip-20"></g>
                                <path d="M52.6022,45.834 C51.4242,45.834 50.4682,44.885 50.4682,43.714 C50.4682,42.543 51.4242,41.595 52.6022,41.595 C53.7812,41.595 54.7372,42.543 54.7372,43.714 C54.7372,44.885 53.7812,45.834 52.6022,45.834 Z M45.7862,45.834 C44.6072,45.834 43.6522,44.885 43.6522,43.714 C43.6522,42.543 44.6072,41.595 45.7862,41.595 C46.9652,41.595 47.9202,42.543 47.9202,43.714 C47.9202,44.885 46.9652,45.834 45.7862,45.834 Z M33.2662,27.901 C32.1682,28.53 30.8042,28.531 29.7062,27.901 L18.8302,21.665 C17.7322,21.035 17.0492,19.861 17.0492,18.602 L17.0492,17.712 C17.5282,18.246 18.0872,18.763 18.7182,19.232 C20.6812,20.693 22.9522,21.498 25.1132,21.498 C27.5522,21.498 29.7392,20.475 31.4852,18.529 C33.2332,20.475 35.4202,21.498 37.8582,21.498 C40.0192,21.498 42.2902,20.693 44.2532,19.232 C44.8842,18.763 45.4432,18.246 45.9222,17.712 L45.9222,18.602 C45.9222,19.861 45.2402,21.035 44.1422,21.665 L33.2662,27.901 Z M38.9702,45.834 C37.7912,45.834 36.8352,44.885 36.8352,43.714 C36.8352,42.543 37.7912,41.595 38.9702,41.595 C40.1492,41.595 41.1042,42.543 41.1042,43.714 C41.1042,44.885 40.1492,45.834 38.9702,45.834 Z M58.4622,26.204 L47.3732,19.845 C47.4742,19.442 47.5332,19.025 47.5332,18.602 L47.5332,14.949 C47.5582,14.853 47.5912,14.756 47.6102,14.661 C47.6152,14.635 47.6122,14.609 47.6132,14.582 L51.4072,12.407 C53.4672,11.227 54.7372,9.043 54.7372,6.679 L54.7372,5.145 L45.9222,0.04 L45.9222,4.123 L45.9222,4.128 L45.9222,14.2 C45.1502,14.528 44.3942,14.695 43.6292,14.695 C42.1952,14.695 40.8712,14.123 39.5892,13.57 C38.2942,13.011 36.9542,12.432 35.4922,12.432 C34.1112,12.432 32.7962,12.953 31.4852,14.02 C30.1752,12.953 28.8602,12.432 27.4802,12.432 C26.0172,12.432 24.6772,13.011 23.3822,13.57 C22.1012,14.123 20.7762,14.695 19.3432,14.695 L19.3422,14.695 C18.5772,14.695 17.8212,14.528 17.0492,14.2 L17.0492,4.128 C17.0492,4.124 17.0502,4.121 17.0502,4.117 L17.0502,0.128 L8.2352,5.232 L8.2352,6.679 C8.2352,9.043 9.5042,11.227 11.5652,12.407 L15.3572,14.582 C15.3602,14.609 15.3562,14.635 15.3622,14.661 C15.3802,14.756 15.4132,14.853 15.4382,14.949 L15.4382,18.602 C15.4382,19.026 15.4972,19.442 15.5992,19.845 L4.5092,26.204 C1.7192,27.805 0.0002,30.762 0.0002,33.962 L0.0002,47.73 C0.0002,50.931 1.7192,53.888 4.5092,55.488 L26.9762,68.372 C27.2632,68.536 27.5572,68.68 27.8552,68.81 L40.0032,75.767 C41.3622,76.545 42.9722,75.25 42.4872,73.769 L40.4832,67.635 C40.4892,67.638 40.4942,67.641 40.5002,67.643 C40.4682,67.487 40.4492,67.327 40.4492,67.162 C40.4492,66.266 40.9622,65.496 41.7052,65.109 C41.7012,65.107 41.6962,65.106 41.6922,65.105 L58.4622,55.488 C61.2522,53.888 62.9722,50.931 62.9722,47.73 L62.9722,33.962 C62.9722,30.762 61.2522,27.805 58.4622,26.204 Z" id="Fill-19" fill="#FEFEFE" mask="url(#mask-4)"></path>
                            </g>
                        </g>
                    </g>
                </g>
            </g>
        </g>
    </g>
</svg>